# xmcd
#
# Track frame offsets:
#	150
#	13775
#	32386
#	47348
#	61678
#	77787
#	95320
#	106801
#	118064
#	135621
#	153387
#	168762
#
# Disc length: 2447 seconds
#
# Revision: 0
# Processed by: cddbd v1.5.2PL0 Copyright (c) Steve Scherf et al.
# Submitted via: EasyCDDAExtractor 16.0.6.1
#
DISCID=82098d0c
DTITLE=Παπάζογλου Νίκος - Νίκος Παπάζογλου 1
DYEAR=2009
DGENRE=Ποικίλη
TTITLE0=Τρελλή κι αδέσποτη [Νίκος Ξυδάκης-Μανώλης Ρασούλης]
TTITLE1=Λεμόνι στην πορτοκαλιά [Βάσω Αλαγιάννη-Μανώλης Ρασούλης]
TTITLE2=Αύγουστος [Νίκος Παπάζογλου]
TTITLE3=Οι μάγκες δεν υπάρχουν πια [Νίκος Ξυδάκης-Μανώλης Ρασούλης]
TTITLE4=Καλημέρα [Νίκος Παπάζογλου-Τάκης Σιμώτας]
TTITLE5=Το όνειρο [Νίκος Παπάζογλου]
TTITLE6=Φίλε αδελφή ψυχή [Νίκος Ξυδάκης-Μανώλης Ρασούλης]
TTITLE7=Στιγμές [Νίκος Παπάζογλου-Πολυξένη Βελένη]
TTITLE8=Καρυάτιδα [Νίκος Παπάζογλου]
TTITLE9=Φεύγω [Ορφέας Περίδης]
TTITLE10=Καρρώ κουβέρτα [Δημήτρης Μπαμπαούς]
TTITLE11=Στάλα, στάλα [Νίκος Παπάζογλου]
EXTD=
EXTT0=
EXTT1=
EXTT2=
EXTT3=
EXTT4=
EXTT5=
EXTT6=
EXTT7=
EXTT8=
EXTT9=
EXTT10=
EXTT11=
PLAYORDER=
